<?xml version="1.0" standalone="no"?>
<!DOCTYPE svg PUBLIC "-//W3C//DTD SVG 20010904//EN"
 "http://www.w3.org/TR/2001/REC-SVG-20010904/DTD/svg10.dtd">
<svg version="1.0" xmlns="http://www.w3.org/2000/svg"
 width="105.000000pt" height="89.000000pt" viewBox="0 0 105.000000 89.000000"
 preserveAspectRatio="xMidYMid meet">

<g transform="translate(0.000000,89.000000) scale(0.100000,-0.100000)"
fill="#000000" stroke="none">
<path d="M330 751 c-19 -4 -44 -12 -55 -18 -34 -19 -82 -76 -94 -112 -15 -46
-15 -461 0 -494 16 -35 49 -47 128 -47 109 0 132 13 161 93 l10 27 124 0 c135
0 166 7 210 48 57 54 66 89 66 283 0 243 26 222 -276 225 -131 1 -255 -1 -274
-5z m433 -102 c13 -21 -45 -229 -76 -275 -28 -43 -50 -55 -113 -61 -59 -6 -97
10 -107 46 -8 31 16 54 63 60 54 8 72 31 46 60 -25 27 -69 27 -100 -1 -18 -17
-34 -56 -60 -152 -19 -70 -41 -134 -47 -142 -15 -19 -73 -18 -89 1 -10 12 -5
42 24 157 43 169 59 205 106 236 30 20 45 23 102 20 53 -3 72 -8 91 -27 27
-24 30 -22 41 24 14 57 33 76 73 73 20 -2 41 -10 46 -19z"/>
</g>
</svg>
